<svg xmlns="http://www.w3.org/2000/svg" width="18" height="18" viewBox="0 0 18 18"><defs><style>.a{fill:#505050;}</style></defs><path class="a" d="M13.5-10.875A4.709,4.709,0,0,1,13.875-9,4.881,4.881,0,0,1,9-4.125,4.881,4.881,0,0,1,4.125-9,4.709,4.709,0,0,1,4.5-10.875H0v8.25A2.641,2.641,0,0,0,2.625,0h12.75A2.641,2.641,0,0,0,18-2.625v-8.25ZM9-5.625A3.374,3.374,0,0,0,12.375-9,3.388,3.388,0,0,0,9-12.375,3.374,3.374,0,0,0,5.625-9,3.361,3.361,0,0,0,9-5.625Zm9-9.75A2.641,2.641,0,0,0,15.375-18H2.625A2.641,2.641,0,0,0,0-15.375v3H5.479A4.927,4.927,0,0,1,9-13.875a4.927,4.927,0,0,1,3.521,1.5H18Z" transform="translate(0 18)"/></svg>