<svg xmlns="http://www.w3.org/2000/svg" width="17.367" height="18.619" viewBox="0 0 17.367 18.619"><defs><style>.a{fill:#505050;}.b{fill:#f7f7f7;}</style></defs><path class="a" d="M17,11.162c-.255,1.313-2.287,2.751-4.619,3.029a22.059,22.059,0,0,1-3.691.22,21.684,21.684,0,0,1-3.737-.5,4.227,4.227,0,0,0,.038.578c.272,2.061,2.044,2.185,3.723,2.242a10.749,10.749,0,0,0,3.2-.418l.07,1.532a8.514,8.514,0,0,1-3.3.754,13.79,13.79,0,0,1-4.294-.475C.741,17.159.113,13.266.017,9.316-.013,8.144.005,7.038.005,6.113.005,2.074,2.652.89,2.652.89a16.5,16.5,0,0,1,6-.89h.058A16.513,16.513,0,0,1,14.72.89s2.646,1.184,2.646,5.223A30.9,30.9,0,0,1,17,11.162" transform="translate(0)"/><path class="b" d="M50.028,42.6v4.891H48.09V42.74c0-1-.421-1.508-1.263-1.508-.931,0-1.4.6-1.4,1.794v2.6H43.5v-2.6c0-1.191-.467-1.794-1.4-1.794-.842,0-1.263.508-1.263,1.508v4.747H38.9V42.6a3.5,3.5,0,0,1,.766-2.381,2.658,2.658,0,0,1,2.074-.889,2.5,2.5,0,0,1,2.239,1.143l.483.809.483-.809a2.5,2.5,0,0,1,2.239-1.143,2.659,2.659,0,0,1,2.074.889,3.5,3.5,0,0,1,.766,2.381" transform="translate(-35.783 -36.17)"/></svg>