<svg xmlns="http://www.w3.org/2000/svg" xmlns:xlink="http://www.w3.org/1999/xlink" width="16" height="18" viewBox="0 0 16 18"><defs><clipPath id="a"><rect width="16" height="18" transform="translate(12 -2)" fill="none"/></clipPath></defs><g transform="translate(-12 2)" clip-path="url(#a)" style="isolation:isolate"><path d="M3.661-3.661a2.066,2.066,0,0,1,.625,1.518A2.066,2.066,0,0,1,3.661-.625,2.066,2.066,0,0,1,2.143,0,2.066,2.066,0,0,1,.625-.625,2.066,2.066,0,0,1,0-2.143,2.066,2.066,0,0,1,.625-3.661a2.066,2.066,0,0,1,1.518-.625A2.066,2.066,0,0,1,3.661-3.661ZM10-.77a.675.675,0,0,1-.19.536A.658.658,0,0,1,9.286,0H7.779A.686.686,0,0,1,7.3-.184a.679.679,0,0,1-.223-.463A6.941,6.941,0,0,0,5.017-5.017,6.941,6.941,0,0,0,.647-7.076.679.679,0,0,1,.184-7.3.686.686,0,0,1,0-7.779V-9.286A.658.658,0,0,1,.234-9.81.65.65,0,0,1,.714-10H.77a10.007,10.007,0,0,1,3.415.9A9.869,9.869,0,0,1,7.076-7.076,9.869,9.869,0,0,1,9.1-4.185,10.007,10.007,0,0,1,10-.77Zm5.714.022a.645.645,0,0,1-.2.525A.66.66,0,0,1,15,0H13.4a.7.7,0,0,1-.5-.2A.668.668,0,0,1,12.69-.67a12.477,12.477,0,0,0-1.127-4.559,12.828,12.828,0,0,0-2.584-3.75,12.828,12.828,0,0,0-3.75-2.584A12.641,12.641,0,0,0,.67-12.7.668.668,0,0,1,.2-12.919.683.683,0,0,1,0-13.4V-15a.66.66,0,0,1,.223-.513.668.668,0,0,1,.491-.2H.748a15.487,15.487,0,0,1,5.6,1.339,15.646,15.646,0,0,1,4.749,3.281,15.646,15.646,0,0,1,3.281,4.749A15.487,15.487,0,0,1,15.714-.748Z" transform="translate(12 15)" fill="#505050"/></g></svg>