<svg xmlns="http://www.w3.org/2000/svg" width="18" height="14.625" viewBox="0 0 18 14.625"><defs><style>.a{fill:#505050;}</style></defs><path class="a" d="M18-14.771a7.3,7.3,0,0,1-2.125.583A3.679,3.679,0,0,0,17.5-16.229a7.537,7.537,0,0,1-2.333.9A3.777,3.777,0,0,0,12.458-16.5a3.681,3.681,0,0,0-3.688,3.688,3.834,3.834,0,0,0,.083.854,10.5,10.5,0,0,1-7.6-3.792,3.452,3.452,0,0,0-.5,1.792A3.671,3.671,0,0,0,2.4-10.9a3.757,3.757,0,0,1-1.667-.458v.042A3.691,3.691,0,0,0,3.688-7.688a3.823,3.823,0,0,1-.979.125,3.836,3.836,0,0,1-.688-.062A3.679,3.679,0,0,0,5.458-5.063,7.466,7.466,0,0,1,.875-3.313,6.18,6.18,0,0,1,0-3.375a10.394,10.394,0,0,0,5.667,1.5,10.427,10.427,0,0,0,10.5-10.5v-.479A7.647,7.647,0,0,0,18-14.771Z" transform="translate(0 16.5)"/></svg>